<?xml version="1.0" encoding="UTF-8"?>
<svg version="1.1" xmlns="http://www.w3.org/2000/svg" width="1024" height="1024">
<path d="M0 0 C337.92 0 675.84 0 1024 0 C1024 337.92 1024 675.84 1024 1024 C686.08 1024 348.16 1024 0 1024 C0 686.08 0 348.16 0 0 Z " fill="#00424B" transform="translate(0,0)"/>
<path d="M0 0 C337.92 0 675.84 0 1024 0 C1024 337.92 1024 675.84 1024 1024 C686.08 1024 348.16 1024 0 1024 C0 686.08 0 348.16 0 0 Z M180.375 82.0625 C179.25673828 82.44462646 178.13847656 82.82675293 176.98632812 83.22045898 C161.92646968 88.56148021 147.38200016 95.80529633 135 106 C134.22003662 106.63421875 134.22003662 106.63421875 133.42431641 107.28125 C129.54588977 110.44419509 125.75511432 113.69157249 122 117 C121.29230469 117.62132812 120.58460937 118.24265625 119.85546875 118.8828125 C89.22351166 147.644608 75.7399187 191.06938096 74 232 C73.81545413 239.58983748 73.85613188 247.18356813 73.85955811 254.77510071 C73.85697069 257.07925487 73.85395649 259.38340859 73.8505547 261.68756169 C73.84252567 267.99254902 73.84069743 274.29752494 73.83995724 280.60251677 C73.83829056 286.71291075 73.83196762 292.82329849 73.82587883 298.93368936 C73.80986826 315.2899037 73.80392119 331.64611706 73.79913008 348.00233783 C73.79678918 355.74940452 73.793186 363.49647048 73.7894347 371.2435366 C73.77660362 397.79546849 73.76588403 424.34739998 73.7624321 450.89933491 C73.76221047 452.56406375 73.76198869 454.2287926 73.76176675 455.89352144 C73.76154611 457.5621184 73.76132563 459.23071536 73.7611053 460.89931232 C73.76066276 464.24643282 73.76021564 467.59355332 73.75976562 470.94067383 C73.75965623 471.77055635 73.75954684 472.60043888 73.75943414 473.45546935 C73.75580567 500.3481879 73.73989129 527.24087945 73.71657526 554.13358766 C73.69193276 582.6086324 73.67825722 611.08366172 73.67706418 639.55871743 C73.67689274 642.68957309 73.67667732 645.82042875 73.67642975 648.95128441 C73.67637398 649.7221121 73.67631821 650.49293979 73.67626075 651.28712589 C73.67511418 663.64635252 73.66412594 676.00555125 73.64954269 688.36476849 C73.63511654 700.80676659 73.63197504 713.24872924 73.63998267 725.69073341 C73.64402332 732.41987497 73.64303906 739.14891214 73.62892532 745.87804794 C73.6160891 752.05494648 73.61746828 758.2316829 73.62951604 764.40858152 C73.63145633 766.62662973 73.62847323 768.84468981 73.61967167 771.06272141 C73.54581186 790.95761849 74.99682176 810.9199897 79.6875 830.3125 C80.06986816 831.91738281 80.06986816 831.91738281 80.45996094 833.5546875 C85.98520357 855.708468 96.10955752 876.62233865 111 894 C111.45600586 894.53431641 111.91201172 895.06863281 112.38183594 895.61914062 C123.62403299 908.62829933 136.17151476 919.24184853 151.05029297 927.86816406 C152.3003512 928.59384274 153.54478553 929.32934965 154.78173828 930.07714844 C179.19493564 944.82058772 209.88708488 951.18845179 238.18115044 951.13142776 C239.14823582 951.1334804 240.11532121 951.13553303 241.11171222 951.13764787 C244.33546405 951.1432789 247.55917262 951.14186547 250.78292847 951.14044189 C253.12446743 951.14302777 255.46600596 951.14604155 257.80754387 951.1494453 C263.55721451 951.15664986 269.30687404 951.15921665 275.05654887 951.15977435 C281.94808925 951.16069131 288.83962114 951.16736865 295.73115784 951.17412117 C312.38427156 951.19014963 329.03738433 951.19608091 345.69050437 951.20086992 C353.57506536 951.20320908 361.45962562 951.20681209 369.34418604 951.2105653 C396.35630726 951.22339815 423.36842809 951.23411745 450.38055229 951.2375679 C452.07489741 951.23778953 453.76924253 951.23801131 455.46358765 951.23823325 C457.16192266 951.23845389 458.86025767 951.23867437 460.55859268 951.2388947 C463.96549408 951.23933724 467.37239548 951.23978436 470.77929688 951.24023438 C472.04635858 951.24039846 472.04635858 951.24039846 473.33901749 951.24056586 C500.71626036 951.24419486 528.09347673 951.26011036 555.47070945 951.28342474 C584.44439569 951.30805335 613.41806679 951.32174215 642.39176381 951.32293582 C645.57595579 951.32310726 648.76014777 951.32332268 651.94433975 951.32357025 C652.72832499 951.32362602 653.51231022 951.32368179 654.32005259 951.32373925 C666.90432361 951.32488705 679.4885673 951.33588596 692.07282911 951.35045731 C704.73580484 951.36486559 717.39874576 951.36803493 730.06172745 951.36001733 C736.91389281 951.35596985 743.76596136 951.35699282 750.61811638 951.37107468 C756.90286582 951.38387184 763.18745565 951.38256522 769.47220506 951.37048396 C771.73401304 951.36853701 773.99583256 951.37155849 776.25762437 951.38032833 C796.36096507 951.45328056 815.57558938 949.22800384 835 944 C835.64179199 943.83306641 836.28358398 943.66613281 836.94482422 943.49414062 C853.75368692 939.04586365 870.05784587 931.40198333 884 921 C884.78117188 920.42765625 885.56234375 919.8553125 886.3671875 919.265625 C892.21626484 914.85351821 897.63782148 909.98603875 903 905 C903.65613281 904.40960937 904.31226563 903.81921875 904.98828125 903.2109375 C916.96222917 891.95592227 925.73825604 877.60742076 933 863 C933.36609375 862.26475098 933.7321875 861.52950195 934.109375 860.77197266 C938.72731229 851.25793428 941.87800336 841.59832525 944.3125 831.3125 C944.54291992 830.34763672 944.77333984 829.38277344 945.01074219 828.38867188 C949.27167391 809.00487384 950.44573413 789.48616363 950.38095093 769.69845581 C950.38441768 767.35053292 950.38918899 765.00261165 950.39513266 762.65469372 C950.40753246 756.27525236 950.40152308 749.89594749 950.39217401 743.51650596 C950.3845561 737.32027492 950.39410431 731.12405621 950.4016161 724.92782888 C950.41733274 711.4905189 950.41607662 698.05325198 950.40737936 684.61593801 C950.3998068 672.85735867 950.39787461 661.09879505 950.4014473 649.34021378 C950.40167645 648.5576113 950.40190561 647.77500882 950.40214171 646.96869112 C950.40307585 643.79118389 950.40403106 640.61367667 950.405021 637.43616946 C950.41417952 607.68360828 950.40590668 577.93107439 950.38973031 548.17851743 C950.37549274 521.79136029 950.37677186 495.4042466 950.39111328 469.01708984 C950.40720387 439.31291225 950.41353256 409.60875872 950.40427649 379.90457737 C950.40331446 376.73376982 950.40237593 373.56296226 950.4014473 370.39215469 C950.40121006 369.61152454 950.40097283 368.83089438 950.40072841 368.02660876 C950.39732727 356.27899225 950.40128563 344.53139323 950.40888596 332.78377914 C950.41749099 319.4172583 950.41526128 306.0507869 950.39904372 292.68427216 C950.39104978 285.87240265 950.38801812 279.06062624 950.39799118 272.24875641 C950.40700073 266.00024024 950.40190311 259.75189252 950.38605852 253.5033914 C950.38273707 251.25608922 950.38434447 249.00877248 950.39168589 246.76147984 C950.44989257 227.44579515 948.66792149 208.62709411 943.875 189.875 C943.42495605 188.10890381 943.42495605 188.10890381 942.96582031 186.30712891 C937.11922159 164.40771299 926.0929858 143.93680605 911 127 C910.20980469 126.07832031 909.41960938 125.15664062 908.60546875 124.20703125 C902.920262 117.71604716 896.86765042 112.21181375 890 107 C889.21133545 106.39091797 889.21133545 106.39091797 888.40673828 105.76953125 C879.48308099 98.91531885 870.21500934 93.68306187 860 89 C858.83597656 88.45472656 857.67195312 87.90945312 856.47265625 87.34765625 C830.59523084 75.69836852 804.45514184 73.84933009 776.45852661 73.85282898 C774.05893961 73.84952557 771.65935316 73.845799 769.25976741 73.8416875 C763.37421745 73.83275766 757.48867455 73.82844866 751.60311925 73.82616853 C744.54723713 73.82319232 737.49136482 73.81448682 730.43548789 73.80575425 C713.38697027 73.78496805 696.33845098 73.77444977 679.28992365 73.76562465 C671.21687233 73.76141033 663.14382174 73.75618946 655.07077103 73.75094012 C627.40807883 73.73305615 599.7453864 73.71806187 572.08268929 73.71061993 C570.3479672 73.71014518 568.61324512 73.70966929 566.87852304 73.70919226 C566.01830729 73.70895589 565.15809154 73.70871951 564.27180865 73.70847597 C559.91395316 73.70727485 555.55609767 73.70605937 551.19824219 73.70483398 C550.33343388 73.70459383 549.46862557 73.70435368 548.57761095 73.70410626 C520.54868034 73.69621617 492.51979208 73.67278711 464.49087996 73.64027804 C434.82109642 73.60592895 405.15133764 73.5862642 375.48153389 73.58297569 C372.22038451 73.58255818 368.95923515 73.58207863 365.69808578 73.58155251 C364.89516429 73.58142931 364.09224279 73.58130612 363.26499034 73.5811792 C350.38180778 73.57885376 337.49867471 73.56323095 324.61550974 73.54271066 C311.65028176 73.52238827 298.68511279 73.51700559 285.71987183 73.52648129 C278.03274653 73.53167104 270.34581869 73.52593933 262.65872207 73.50394662 C256.89607927 73.48871609 251.13360647 73.4947684 245.37096737 73.50861714 C243.05669219 73.51098083 240.74239753 73.50673494 238.42815198 73.49478849 C218.56015097 73.39867148 199.22668096 75.48811126 180.375 82.0625 Z " fill="#F6F4F2" transform="translate(0,0)"/>
<path d="M0 0 C1.25702477 -0.01058945 1.25702477 -0.01058945 2.53944397 -0.02139282 C51.5781169 -0.34024685 95.73944065 9.24632183 136.15625 38.203125 C137.04666992 38.83686035 137.04666992 38.83686035 137.95507812 39.48339844 C147.40995565 46.28148825 155.78611836 54.13912435 164.15625 62.203125 C164.95160156 62.95722656 165.74695313 63.71132812 166.56640625 64.48828125 C171.91541509 69.66714269 176.57823433 75.33940038 181.15625 81.203125 C181.57777344 81.73760254 181.99929688 82.27208008 182.43359375 82.82275391 C208.25999552 115.80506151 222.39404217 156.2641721 223.15625 198.203125 C223.17671387 199.21294434 223.19717773 200.22276367 223.21826172 201.26318359 C224.11858677 253.86151214 212.99559453 303.79807043 190.45019531 351.44873047 C188.96134592 354.61801327 187.50734421 357.80225055 186.0546875 360.98828125 C180.19510363 373.80070665 174.17359417 386.48203629 167.43066406 398.85742188 C166.07307343 401.35622089 164.7351868 403.86499541 163.3984375 406.375 C156.35602942 419.52677138 148.80971856 432.33836506 141.05419922 445.08056641 C139.17490237 448.1724376 137.30687752 451.27086522 135.44140625 454.37109375 C128.93333371 465.1618979 122.28272299 475.80898352 115.15625 486.203125 C112.3179321 484.88603018 110.01538055 483.41480813 107.6171875 481.41015625 C106.95984619 480.86593018 106.30250488 480.3217041 105.62524414 479.76098633 C104.93422607 479.18501709 104.24320801 478.60904785 103.53125 478.015625 C88.17345546 465.4142255 71.97726826 454.81139363 53.15625 448.203125 C52.16109375 447.83703125 51.1659375 447.4709375 50.140625 447.09375 C17.31765703 435.92363001 -25.10864924 433.9003331 -56.91430664 448.90234375 C-60.27980188 450.57209797 -63.56851675 452.36362145 -66.84375 454.203125 C-67.50761719 454.57034668 -68.17148437 454.93756836 -68.85546875 455.31591797 C-100.64717959 473.1564791 -120.76297472 503.86359973 -130.6171875 538.3515625 C-133.39110581 548.95012547 -134.24959356 559.14626266 -134.21875 570.078125 C-134.21820618 570.80411896 -134.21766235 571.53011292 -134.21710205 572.27810669 C-134.17479531 584.60036779 -133.1491544 596.29461325 -129.84375 608.203125 C-129.62944336 608.98139648 -129.41513672 609.75966797 -129.19433594 610.56152344 C-124.24594133 627.91331762 -116.04717833 644.95272727 -104.578125 658.97265625 C-102.84375 661.203125 -102.84375 661.203125 -102.84375 663.203125 C-122.88222751 657.47784571 -141.64091813 645.24432693 -156.84375 631.203125 C-157.3485791 630.74212402 -157.8534082 630.28112305 -158.37353516 629.80615234 C-172.57335143 616.70038291 -182.62204987 601.05821187 -191.84375 584.203125 C-192.42898438 583.16929687 -193.01421875 582.13546875 -193.6171875 581.0703125 C-212.70996812 545.61229135 -213.06164731 503.29143782 -213.03125 464.140625 C-213.03113041 463.48069424 -213.03101082 462.82076347 -213.0308876 462.14083481 C-213.02094845 418.44150275 -211.54612583 374.78100038 -209.34375 331.140625 C-209.28408051 329.95360992 -209.22441101 328.76659485 -209.16293335 327.54360962 C-208.00387091 304.8236386 -206.39303941 282.14365592 -204.03125 259.515625 C-203.94760193 258.71104858 -203.86395386 257.90647217 -203.777771 257.07751465 C-197.39860714 196.06110148 -187.69840589 133.63860429 -149.84375 83.203125 C-149.23273438 82.37425781 -148.62171875 81.54539062 -147.9921875 80.69140625 C-146.32171694 78.48654345 -144.60043491 76.3399329 -142.84375 74.203125 C-142.02390625 73.19894531 -141.2040625 72.19476563 -140.359375 71.16015625 C-130.80569417 59.58415089 -120.48192361 49.46267648 -108.48681641 40.44042969 C-107.01748874 39.33395827 -105.56059799 38.21101603 -104.10546875 37.0859375 C-90.18578349 26.56696442 -74.87806339 18.92514839 -58.84375 12.203125 C-57.73515625 11.72101563 -56.6265625 11.23890625 -55.484375 10.7421875 C-38.61828742 4.02143687 -18.12015204 0.10123831 0 0 Z " fill="#FE883A" transform="translate(499.84375,148.796875)"/>
<path d="M0 0 C2.24842476 1.95823668 4.47460529 3.93924596 6.6875 5.9375 C7.43773437 6.61425781 8.18796875 7.29101562 8.9609375 7.98828125 C32.06236537 30.00535638 45.95574057 60.81724939 53.4375 91.375 C53.62393066 92.12281738 53.81036133 92.87063477 54.00244141 93.64111328 C57.8148562 110.13194426 59.18618709 126.61319471 59.07861328 143.50366211 C59.06248789 146.50225131 59.07859922 149.49949716 59.09765625 152.49804688 C59.15978545 208.99400422 33.58240098 266.30256775 -1.3125 309.9375 C-2.48619141 311.43216797 -2.48619141 311.43216797 -3.68359375 312.95703125 C-12.66616275 324.21105448 -12.66616275 324.21105448 -18.5 325.8125 C-19.8921875 325.874375 -19.8921875 325.874375 -21.3125 325.9375 C-21.9725 325.2775 -22.6325 324.6175 -23.3125 323.9375 C-22.91034132 320.69642138 -21.45246092 318.04547798 -19.94140625 315.18359375 C-19.45462402 314.25675781 -18.9678418 313.32992188 -18.46630859 312.375 C-17.94117676 311.385 -17.41604492 310.395 -16.875 309.375 C-16.33439941 308.34503906 -15.79379883 307.31507813 -15.23681641 306.25390625 C-12.73306861 301.48906462 -10.21003273 296.73578784 -7.64453125 292.00390625 C24.38554306 232.68848769 46.71128438 159.2984181 27.46923828 92.45214844 C16.5933298 57.46718362 -5.37672832 23.48795118 -38.2421875 5.76953125 C-67.70451072 -9.55641633 -97.92448504 -13.3834632 -129.8515625 -3.7421875 C-144.16337282 0.89109752 -157.57093468 7.48650234 -169.3125 16.9375 C-170.01632812 17.47761719 -170.72015625 18.01773438 -171.4453125 18.57421875 C-185.21910484 29.7282898 -195.32063784 48.5046024 -198.3125 65.9375 C-197.84624384 69.35282636 -196.76515269 70.59148438 -194.3125 72.9375 C-194.3125 73.5975 -194.3125 74.2575 -194.3125 74.9375 C-193.75046875 75.19273437 -193.1884375 75.44796875 -192.609375 75.7109375 C-190.01867559 77.09440623 -187.87898607 78.75679191 -185.5625 80.5625 C-181.06866967 83.85518685 -176.51736737 86.61118697 -171.5625 89.125 C-170.96856445 89.43324707 -170.37462891 89.74149414 -169.76269531 90.05908203 C-159.3333287 95.1921584 -147.87186795 98.13984403 -136.68115234 101.11914062 C-101.02893386 110.61407352 -69.91551344 126.2080738 -50.3125 158.9375 C-36.41256911 183.31333188 -31.5786212 210.56909983 -38.70068359 237.77783203 C-40.18004085 242.99985689 -42.08205904 247.98736007 -44.3125 252.9375 C-44.62960937 253.700625 -44.94671875 254.46375 -45.2734375 255.25 C-46.1875 257.1875 -46.1875 257.1875 -48.3125 259.9375 C-51.875 261.0625 -51.875 261.0625 -55.3125 260.9375 C-57.9604735 259.17218433 -58.2894986 258.00650421 -59.3125 254.9375 C-59.35023644 252.2326255 -59.33231909 249.55424623 -59.26953125 246.8515625 C-59.24331217 245.19175448 -59.21863157 243.53192161 -59.1953125 241.87207031 C-59.18274414 241.0044104 -59.17017578 240.13675049 -59.15722656 239.24279785 C-58.81618169 210.87794053 -62.25465629 185.85454529 -80.3125 162.9375 C-80.89773438 162.18210937 -81.48296875 161.42671875 -82.0859375 160.6484375 C-99.19621276 139.84298542 -124.80284587 132.48543847 -149.6484375 125.69018555 C-170.26072041 120.02625005 -188.92232501 112.61281039 -206.3125 99.9375 C-204.36120757 130.11114399 -197.5118798 157.44274972 -174.9609375 179.20703125 C-169.26446392 184.10106041 -163.1250158 187.99800852 -156.75 191.9375 C-143.73328289 200.00246684 -132.87149587 208.60443233 -128.78125 224.11328125 C-125.94124128 241.22433379 -130.57312024 255.65555878 -140.20703125 269.69921875 C-148.04406638 279.48427409 -159.51099639 283.89586449 -171.1875 287.5 C-180.80456289 290.53322975 -188.18561217 295.03323216 -193.3125 303.9375 C-195.21876198 308.35485352 -196.73124243 312.90839991 -198.2734375 317.46289062 C-200.09428586 322.56490774 -201.37198752 326.13787626 -206.3125 328.9375 C-209.8160699 329.58630924 -212.05861226 329.64442437 -215.2109375 327.8671875 C-219.69802312 324.40247582 -222.34994344 320.57654815 -223.3125 314.9375 C-224.40991497 303.42080802 -223.46599646 293.71892338 -216.22265625 284.1875 C-210.87055563 278.03944595 -204.99027156 272.84835537 -198.375 268.125 C-187.89397529 260.28454353 -181.56210142 249.82158085 -179.3125 236.9375 C-178.22795758 227.29341513 -180.43321476 217.22180999 -186.375 209.4375 C-187.66690113 207.91972277 -188.98174512 206.42132873 -190.3125 204.9375 C-198.37165197 195.70018273 -205.66633435 186.25060516 -212.3125 175.9375 C-212.87928467 175.06206543 -212.87928467 175.06206543 -213.45751953 174.16894531 C-231.92861065 145.16087925 -236.01438927 107.51179814 -229.27734375 74.125 C-228.9638371 72.72732328 -228.64231128 71.33141935 -228.3125 69.9375 C-228.15152832 69.2465625 -227.99055664 68.555625 -227.82470703 67.84375 C-219.79292984 34.75992616 -200.725249 3.95166814 -171.3125 -14.0625 C-161.45771998 -19.71042795 -150.97825616 -24.19558624 -140.3125 -28.0625 C-139.26578125 -28.44277344 -138.2190625 -28.82304687 -137.140625 -29.21484375 C-89.3531942 -44.65834273 -37.58314752 -32.05474256 0 0 Z " fill="#02414C" transform="translate(605.3125,243.0625)"/>
<path d="M0 0 C0.72977051 0.19835449 1.45954102 0.39670898 2.21142578 0.60107422 C23.78091114 6.62213642 42.56542051 17.13158449 60 31 C61.40462635 32.09063597 62.81082687 33.17924823 64.21875 34.265625 C73.30786307 41.30786307 73.30786307 41.30786307 76 44 C75.6496582 46.3190918 75.6496582 46.3190918 75 49 C74.8407409 50.62903584 74.71039458 52.26109567 74.60546875 53.89453125 C71.88368239 92.79048673 63.51609788 132.63663259 39 164 C38.34 164.87527344 37.68 165.75054688 37 166.65234375 C27.8530237 178.53269383 16.10253823 187.68706459 2 193 C1.34 193 0.68 193 0 193 C9.39072571 210.59806729 23.87792895 222.07693891 42.5625 228.75 C62.27024497 234.70815546 83.44418645 232.88487606 102 224 C106.84076883 221.26284355 111.41980021 218.37091738 115.625 214.72265625 C116.800625 213.86994141 116.800625 213.86994141 118 213 C121 214 121 214 122.625 216.1875 C126.7403066 221.0608894 132.28121799 224.25758408 138 227 C125.10423857 243.72963645 103.00402298 253.39564447 82.43798828 256.37060547 C55.97680468 259.2204277 28.74220878 254.99643098 6.9609375 238.73046875 C4.25990524 236.53542501 1.6228898 234.28745089 -1 232 C-2.49080078 230.80697266 -2.49080078 230.80697266 -4.01171875 229.58984375 C-15.89108784 219.29439054 -24.57836164 203.2793851 -28 188 C-28.226875 187.01 -28.45375 186.02 -28.6875 185 C-29.13907626 180.66486793 -29.07744547 176.35415622 -29 172 C-28.030625 171.61070312 -27.06125 171.22140625 -26.0625 170.8203125 C-6.38187922 162.70121998 11.72981916 152.11629241 21 132 C22.99645422 127.02743612 24.73688194 121.97033525 26.38964844 116.87451172 C26.93946886 115.18590325 27.5168936 113.50634305 28.09765625 111.828125 C33.82119213 93.88942381 31.86554625 75.34283994 23.6875 58.5625 C16.60642526 45.33755159 6.57105871 38.2505283 -7.5625 33.625 C-30.5255312 27.39493391 -53.71159419 27.82652773 -74.8828125 39.15625 C-92.06569751 49.31956043 -102.60505281 64.92739733 -107.53735352 84.08740234 C-109.24648288 91.50656024 -109.33213652 98.7874471 -109.3125 106.375 C-109.32861328 107.6125 -109.34472656 108.85 -109.36132812 110.125 C-109.37037768 127.31915907 -104.15805478 142.45738144 -92.25756836 155.00805664 C-84.36667428 162.87750443 -73.26694148 168.65228482 -62.29296875 170.6875 C-59 172 -59 172 -57.46875 175.203125 C-57.12010613 176.54566409 -56.79860673 177.89545292 -56.5 179.25 C-54.60112211 186.50686871 -51.88378564 192.69943754 -48.35546875 199.3046875 C-47 202 -47 202 -47 204 C-71.9444203 205.20861256 -93.89969099 197.15517815 -112.625 180.375 C-126.98183562 166.98422387 -135.59051696 150.01174096 -140 131 C-140.33837891 129.58847656 -140.33837891 129.58847656 -140.68359375 128.1484375 C-146.75541672 97.07745378 -139.70694524 67.01364579 -122.890625 40.69921875 C-106.25825565 17.18104849 -84.14223712 2.65414047 -55.9921875 -3.1171875 C-37.55204704 -6.24592945 -17.96908313 -5.06154738 0 0 Z " fill="#FC883A" transform="translate(531,617)"/>
<path d="M0 0 C8.71159178 5.28383488 15.39264783 12.85574758 17.91015625 22.92578125 C19.3570478 32.6961887 18.12195379 42.06254978 12.21484375 50.22265625 C5.44198267 57.98917485 -1.26136669 63.14770674 -11.7265625 64.37890625 C-20.97878821 64.9957213 -29.04578158 62.65496464 -36.62109375 57.23828125 C-43.68977493 50.99580956 -47.92458155 42.85783104 -49.07421875 33.5703125 C-49.56710917 23.85152452 -46.573885 15.47164797 -40.4140625 7.94140625 C-30.01169371 -2.93585329 -13.89631708 -6.62498837 0 0 Z " fill="#FD883A" transform="translate(706.7265625,770.62109375)"/>
<path d="M0 0 C4.66154237 0.51311754 7.80934622 2.60329861 11.5 5.3125 C12.41422729 5.97693115 12.41422729 5.97693115 13.34692383 6.65478516 C20.02976327 11.61494093 26.09618875 17.14554537 32 23 C32.93585937 23.92296875 33.87171875 24.8459375 34.8359375 25.796875 C60.43823993 52.35284486 72.71685813 87.13933323 72.10546875 123.56640625 C72.07247772 125.04432075 72.03820348 126.52221105 72 128 C70.2984375 127.58427734 70.2984375 127.58427734 68.5625 127.16015625 C67.04172152 126.79404291 65.52088505 126.42817037 64 126.0625 C63.25621094 125.88009766 62.51242187 125.69769531 61.74609375 125.50976562 C58.00133481 124.61427979 54.3279279 123.87021678 50.5 123.43359375 C47 123 47 123 46 122 C45.90408101 120.14343466 45.81521311 118.28624316 45.76147461 116.42797852 C44.86732322 87.83579087 33.9669477 62.48712871 14 42 C12.7625 40.700625 12.7625 40.700625 11.5 39.375 C10.675 38.59125 9.85 37.8075 9 37 C8.36835937 36.39671875 7.73671875 35.7934375 7.0859375 35.171875 C1.49381202 29.99471289 -4.46728427 25.90741876 -11 22 C-9.92397476 19.45501897 -8.83950208 16.91420689 -7.75 14.375 C-7.44964844 13.66214844 -7.14929688 12.94929687 -6.83984375 12.21484375 C-4.93292647 7.79241858 -2.79682049 3.92297387 0 0 Z " fill="#FB883A" transform="translate(645,627)"/>
<path d="M0 0 C2.46406408 3.69609611 2.09366678 5.15450483 1.6875 9.5 C1.53861328 11.21703125 1.53861328 11.21703125 1.38671875 12.96875 C1 16 1 16 0 19 C-0.66 19 -1.32 19 -2 19 C-2 20.65 -2 22.3 -2 24 C-2.66 23.67 -3.32 23.34 -4 23 C-2.7399707 15.31918309 -1.41621567 7.65359108 0 0 Z " fill="#E6EBEB" transform="translate(947,812)"/>
<path d="M0 0 C0.99 0.33 1.98 0.66 3 1 C1.09236669 2.98861775 -0.82515911 4.96565718 -2.75 6.9375 C-3.55824219 7.78344727 -3.55824219 7.78344727 -4.3828125 8.64648438 C-4.91132813 9.18466797 -5.43984375 9.72285156 -5.984375 10.27734375 C-6.70705566 11.02359009 -6.70705566 11.02359009 -7.44433594 11.78491211 C-9.25704528 13.20077124 -10.75631224 13.59147949 -13 14 C-8.88380164 9.08064098 -4.59589638 4.47352044 0 0 Z " fill="#EE8A39" transform="translate(377,201)"/>
<path d="M0 0 C0.33 0 0.66 0 1 0 C2.69423409 6.35337785 2.69423409 13.64662215 1 20 C0.67 20 0.34 20 0 20 C-0.19522373 17.41703983 -0.38144403 14.83395921 -0.5625 12.25 C-0.61857422 11.52039063 -0.67464844 10.79078125 -0.73242188 10.0390625 C-0.97709908 6.45046349 -0.99666259 3.44972775 0 0 Z " fill="#CC7F3D" transform="translate(425,465)"/>
<path d="M0 0 C3.41158256 1.13719419 4.11854601 2.04342944 6 5 C6 5.66 6 6.32 6 7 C4.56068883 6.54738642 3.12361001 6.08767021 1.6875 5.625 C0.88699219 5.36976563 0.08648437 5.11453125 -0.73828125 4.8515625 C-3 4 -3 4 -6 2 C-4.02 2 -2.04 2 0 2 C0 1.34 0 0.68 0 0 Z " fill="#EA8939" transform="translate(391,805)"/>
<path d="M0 0 C0.66 0.33 1.32 0.66 2 1 C0.38405168 3.04119788 -1.2856382 5.04072937 -3 7 C-3.66 7 -4.32 7 -5 7 C-5.2475 7.639375 -5.495 8.27875 -5.75 8.9375 C-7 11 -7 11 -9.078125 11.62890625 C-10.02945313 11.81259766 -10.02945313 11.81259766 -11 12 C-10.04882866 10.8274869 -9.08882991 9.66212985 -8.125 8.5 C-7.32449219 7.52546875 -7.32449219 7.52546875 -6.5078125 6.53125 C-6.01023437 6.0259375 -5.51265625 5.520625 -5 5 C-4.34 5 -3.68 5 -3 5 C-2.690625 4.360625 -2.38125 3.72125 -2.0625 3.0625 C-1 1 -1 1 0 0 Z " fill="#1C414C" transform="translate(565,786)"/>
<path d="M0 0 C0.66 0.33 1.32 0.66 2 1 C1.04882866 2.1725131 0.08882991 3.33787015 -0.875 4.5 C-1.67550781 5.47453125 -1.67550781 5.47453125 -2.4921875 6.46875 C-2.98976563 6.9740625 -3.48734375 7.479375 -4 8 C-4.66 8 -5.32 8 -6 8 C-6 8.66 -6 9.32 -6 10 C-7.32 9.67 -8.64 9.34 -10 9 C-6.7 6.03 -3.4 3.06 0 0 Z " fill="#17424D" transform="translate(718,821)"/>
<path d="M0 0 C0.66 0.66 1.32 1.32 2 2 C1.828125 3.98828125 1.828125 3.98828125 1.25 6.3125 C1.05148437 7.11171875 0.85296875 7.9109375 0.6484375 8.734375 C-0.06848466 11.23928374 -0.92741267 13.62498519 -2 16 C-3.3805087 12.23331402 -2.59568159 9.55210827 -1.5625 5.75 C-1.27503906 4.67234375 -0.98757813 3.5946875 -0.69140625 2.484375 C-0.46324219 1.66453125 -0.23507812 0.8446875 0 0 Z " fill="#E6893A" transform="translate(309,322)"/>
<path d="M0 0 C0.66 0.33 1.32 0.66 2 1 C-0.64 5.62 -3.28 10.24 -6 15 C-7 12 -7 12 -5.56640625 9.08203125 C-4.90511719 8.00308594 -4.24382813 6.92414062 -3.5625 5.8125 C-2.90378906 4.72582031 -2.24507812 3.63914062 -1.56640625 2.51953125 C-1.04949219 1.68808594 -0.53257812 0.85664062 0 0 Z " fill="#083B4E" transform="translate(660,560)"/>
<path d="M0 0 C0.66 0.99 1.32 1.98 2 3 C0.35 6.3 -1.3 9.6 -3 13 C-3.66 13 -4.32 13 -5 13 C-4.54554036 11.58208592 -4.08625056 10.16571954 -3.625 8.75 C-3.24214844 7.56664062 -3.24214844 7.56664062 -2.8515625 6.359375 C-2.04826333 4.13372042 -1.10288338 2.09068328 0 0 Z " fill="#E78939" transform="translate(565,485)"/>
<path d="M0 0 C0.66 0.66 1.32 1.32 2 2 C-0.97 4.31 -3.94 6.62 -7 9 C-7.66 8.67 -8.32 8.34 -9 8 C-6.03 5.36 -3.06 2.72 0 0 Z " fill="#0C3F4E" transform="translate(450,659)"/>
<path d="M0 0 C4.99275057 1.27721526 7.57611908 3.17330957 11 7 C10.67 7.66 10.34 8.32 10 9 C8.33043913 7.69118353 6.66441696 6.37785174 5 5.0625 C4.071875 4.33160156 3.14375 3.60070312 2.1875 2.84765625 C1.465625 2.23792969 0.74375 1.62820313 0 1 C0 0.67 0 0.34 0 0 Z " fill="#0F3F4E" transform="translate(581,640)"/>
<path d="M0 0 C0.66 0 1.32 0 2 0 C1.39301257 4.12751449 -0.03810791 7.3321148 -2 11 C-2.95465783 8.83032311 -3.14401212 7.43671207 -2.3984375 5.17578125 C-1.64129615 3.4315257 -0.82390802 1.71372869 0 0 Z " fill="#0A3C4D" transform="translate(699,478)"/>
<path d="M0 0 C3.7952131 1.49097658 5.61042731 3.75700849 8 7 C5 7 5 7 2.3125 4.625 C0 2 0 2 0 0 Z " fill="#1E444E" transform="translate(899,116)"/>
<path d="M0 0 C0.66 0 1.32 0 2 0 C1.6875 3.375 1.6875 3.375 1 7 C0.01 7.66 -0.98 8.32 -2 9 C-1.51421457 5.87709365 -1.0013988 3.00419641 0 0 Z " fill="#103F4C" transform="translate(616,495)"/>
<path d="M0 0 C3.99455527 0.61454696 6.74466336 2.70646737 10 5 C9.01 5.33 8.02 5.66 7 6 C5.17578125 5.0390625 5.17578125 5.0390625 3.3125 3.625 C2.68988281 3.16351562 2.06726563 2.70203125 1.42578125 2.2265625 C0.95527344 1.82179688 0.48476562 1.41703125 0 1 C0 0.67 0 0.34 0 0 Z " fill="#E6EDEC" transform="translate(139,921)"/>
<path d="M0 0 C1 3 1 3 -0.25 6.0625 C-2 9 -2 9 -5 11 C-3.77472971 6.94718288 -2.30119506 3.55639236 0 0 Z " fill="#093C4D" transform="translate(648,580)"/>
<path d="M0 0 C0.66 0 1.32 0 2 0 C2 0.66 2 1.32 2 2 C0.68 2.33 -0.64 2.66 -2 3 C-1.34 2.01 -0.68 1.02 0 0 Z M-2 3 C-2.66 4.32 -3.32 5.64 -4 7 C-4.99 6.67 -5.98 6.34 -7 6 C-4.25 3 -4.25 3 -2 3 Z " fill="#F08B39" transform="translate(390,190)"/>
<path d="M0 0 C-0.33 0.99 -0.66 1.98 -1 3 C-3.91482778 3.80967438 -5.46113217 4.21845993 -8.3125 3.0625 C-8.869375 2.711875 -9.42625 2.36125 -10 2 C-8.7090864 1.66376204 -7.41723903 1.33110751 -6.125 1 C-5.40570312 0.814375 -4.68640625 0.62875 -3.9453125 0.4375 C-2 0 -2 0 0 0 Z " fill="#23464A" transform="translate(705,832)"/>
<path d="M0 0 C0.66 0.33 1.32 0.66 2 1 C1.01 1 0.02 1 -1 1 C-0.67 0.67 -0.34 0.34 0 0 Z M-3 2 C-2.34 2 -1.68 2 -1 2 C-1.75 3.9375 -1.75 3.9375 -3 6 C-5.125 6.75 -5.125 6.75 -7 7 C-5.71937515 5.2925002 -4.38232443 3.62626404 -3 2 Z " fill="#E58839" transform="translate(422,535)"/>
<path d="M0 0 C1.39195915 4.17587745 -0.17676781 6.13474776 -2 10 C-2.66 9.67 -3.32 9.34 -4 9 C-2.68 6.03 -1.36 3.06 0 0 Z " fill="#EB8938" transform="translate(328,269)"/>
</svg>
