<?xml version="1.0" encoding="UTF-8" standalone="no"?>
<svg
   version="1.1"
   width="1024"
   height="1024"
   id="svg27"
   sodipodi:docname="logo.svg"
   inkscape:version="1.4.2 (ebf0e940d0, 2025-05-08)"
   inkscape:export-filename="icon/app_icon.png"
   inkscape:export-xdpi="192"
   inkscape:export-ydpi="192"
   xmlns:inkscape="http://www.inkscape.org/namespaces/inkscape"
   xmlns:sodipodi="http://sodipodi.sourceforge.net/DTD/sodipodi-0.dtd"
   xmlns="http://www.w3.org/2000/svg"
   xmlns:svg="http://www.w3.org/2000/svg">
  <defs
     id="defs27" />
  <sodipodi:namedview
     id="namedview27"
     pagecolor="#ffffff"
     bordercolor="#000000"
     borderopacity="0.25"
     inkscape:showpageshadow="2"
     inkscape:pageopacity="0.0"
     inkscape:pagecheckerboard="0"
     inkscape:deskcolor="#d1d1d1"
     inkscape:zoom="0.78306552"
     inkscape:cx="204.96369"
     inkscape:cy="547.84688"
     inkscape:window-width="2560"
     inkscape:window-height="1366"
     inkscape:window-x="0"
     inkscape:window-y="0"
     inkscape:window-maximized="1"
     inkscape:current-layer="svg27" />
  <path
     d="m 536.62999,630.32809 c 0.89578,0.22354 1.79157,0.44707 2.71449,0.67736 26.47615,6.78531 49.5338,18.62869 70.93443,34.2574 1.72415,1.22906 3.45024,2.45585 5.17845,3.68011 11.15672,7.93609 11.15672,7.93609 14.46126,10.96993 -0.43004,2.61346 -0.43004,2.61346 -1.22747,5.63465 -0.1955,1.8358 -0.35549,3.67501 -0.48429,5.51577 -3.34095,43.83292 -13.61199,88.73664 -43.70507,124.08087 -0.81014,0.98637 -1.62028,1.97275 -2.45495,2.989 -11.22776,13.3883 -25.65127,23.7046 -42.96188,29.6919 -0.81014,0 -1.62028,0 -2.45497,0 11.52695,19.83174 29.30973,32.76759 52.24471,40.28765 24.19089,6.71441 50.18153,4.65971 72.95846,-5.3529 5.94196,-3.08458 11.56263,-6.34357 16.72443,-10.4549 1.44307,-0.96094 1.44307,-0.96094 2.91528,-1.94131 3.68244,1.12694 3.68244,1.12694 5.6771,3.59209 5.05147,5.49196 11.85284,9.0944 18.87254,12.1849 -15.82931,18.85308 -42.95693,29.74597 -68.20137,33.09854 -32.48063,3.21155 -65.9106,-1.54859 -92.64672,-19.87915 -3.31547,-2.47365 -6.55235,-5.00696 -9.7719,-7.58475 -1.82993,-1.34445 -1.82993,-1.34445 -3.69684,-2.71607 -14.5817,-11.60223 -25.24518,-29.64998 -29.44517,-46.86874 -0.27849,-1.11566 -0.55698,-2.23132 -0.8439,-3.38079 -0.5543,-4.88536 -0.47865,-9.74323 -0.38359,-14.65004 1.1899,-0.43871 2.37979,-0.87743 3.60573,-1.32943 24.1576,-9.14963 46.38939,-21.07808 57.76837,-43.74767 2.45061,-5.60372 4.58695,-11.3027 6.6157,-17.04533 0.67489,-1.90294 1.38367,-3.79569 2.09654,-5.68691 7.02554,-20.21562 4.62502,-41.11627 -5.41338,-60.0265 -8.6919,-14.90355 -21.01013,-22.89011 -38.35881,-28.10274 -28.18671,-7.02084 -56.64718,-6.53446 -82.63447,6.23332 -21.09168,11.45331 -34.02856,29.0422 -40.08286,50.63413 -2.09793,8.36086 -2.20307,16.56589 -2.17897,25.11651 -0.0198,1.39457 -0.0395,2.78914 -0.0599,4.22598 -0.0106,19.37657 6.38692,36.43624 20.99455,50.57995 9.68594,8.86829 23.31065,15.37605 36.781,17.66958 4.04206,1.47911 4.04206,1.47911 5.92164,5.08879 0.42796,1.51294 0.82259,3.03406 1.18913,4.56053 2.33084,8.17797 5.66632,15.15654 9.99726,22.60019 1.66382,3.03742 1.66382,3.03742 1.66382,5.29127 -30.61883,1.36201 -57.56853,-7.71362 -80.5535,-26.62366 -17.62276,-15.09043 -28.18976,-34.21719 -33.60232,-55.64204 -0.41536,-1.59069 -0.41536,-1.59069 -0.8391,-3.21351 -7.45305,-35.01473 1.19882,-68.89446 21.84055,-98.54891 20.41593,-26.50327 47.56294,-42.87404 82.11662,-49.37792 22.63495,-3.52586 46.67267,-2.19114 68.7294,3.51285 z"
     fill="#fc883a"
     id="path5"
     style="stroke-width:1.17613" />
  <path
     d="m 752.33118,803.4479 c 10.69333,5.95451 18.8942,14.4875 21.98439,25.8357 1.77604,11.01055 0.25999,21.56575 -6.99089,30.76159 -8.31356,8.75231 -16.5418,14.5656 -29.38765,15.95308 -11.35693,0.6951 -21.25902,-1.94276 -30.55758,-8.04697 -8.67668,-7.03482 -13.87483,-16.20573 -15.28599,-26.67209 -0.60502,-10.95237 3.06912,-20.39587 10.63019,-28.88192 12.76871,-12.25787 32.55006,-16.41527 49.60753,-8.94939 z"
     fill="#fd883a"
     id="path6"
     style="stroke-width:1.17613" />
  <path
     d="m 676.56293,641.59736 c 5.72197,0.57825 9.58584,2.93373 14.11606,5.9868 1.12219,0.74877 1.12219,0.74877 2.26706,1.51267 8.20305,5.58973 15.64949,11.82231 22.8963,18.41987 1.14876,1.04012 2.29751,2.08023 3.48107,3.15187 31.42636,29.92666 46.49816,69.1285 45.74768,110.17917 -0.0404,1.6655 -0.0826,3.33097 -0.12949,4.99634 -2.08863,-0.46849 -2.08863,-0.46849 -4.21946,-0.94645 -1.86674,-0.41259 -3.73354,-0.8249 -5.60039,-1.23698 -0.91299,-0.20556 -1.82598,-0.41111 -2.76664,-0.62289 -4.59662,-1.00915 -9.10567,-1.84765 -13.80437,-2.3397 -4.29618,-0.48863 -4.29618,-0.48863 -5.52367,-1.61555 -0.11771,-2.09221 -0.22683,-4.18513 -0.29279,-6.27926 -1.09755,-32.22132 -14.47756,-60.78742 -38.98663,-83.87493 -1.51901,-1.46431 -1.51901,-1.46431 -3.0687,-2.95818 -1.01267,-0.88324 -2.02536,-1.76647 -3.06871,-2.67647 -0.77534,-0.67985 -1.55066,-1.35971 -2.34948,-2.06015 -6.86424,-5.8343 -14.18137,-10.44037 -22.20017,-14.84376 1.32081,-2.868 2.65198,-5.73131 3.98933,-8.59281 0.36868,-0.80334 0.73735,-1.60667 1.1172,-2.43435 2.34071,-4.98374 4.96272,-9.34432 8.39577,-13.76524 z"
     fill="#fb883a"
     id="path7"
     style="stroke-width:1.17613" />
  <path
     style="fill:#fc883a;fill-opacity:1;stroke-width:1.50195"
     d="m 356.12828,843.77238 c -36.55968,-14.5266 -69.92,-44.90064 -93.44501,-85.08015 -23.39667,-39.96031 -28.21485,-83.12458 -23.58978,-211.33161 5.53841,-153.52487 16.80381,-234.78731 40.14992,-289.61951 13.82647,-32.47379 32.95685,-60.23467 58.52412,-84.92677 23.72322,-22.91115 42.84513,-35.55302 75.40748,-49.85336 33.70548,-14.80234 56.53404,-19.37357 95.54068,-19.1312 73.73207,0.45813 129.27104,18.9922 178.95149,59.71843 59.40973,48.70194 87.49893,111.1018 83.6974,185.93303 -2.61707,51.51597 -14.23657,95.77329 -37.97223,144.63183 -21.00355,43.23463 -62.6181,112.77998 -88.40663,147.74334 -6.34131,8.59735 -5.62299,8.70082 -21.84005,-3.14631 -29.10786,-21.26436 -54.22825,-32.40775 -88.26525,-39.15448 -18.56607,-3.68014 -64.65253,-3.60043 -81.02845,0.14019 -24.20655,5.52924 -51.76128,19.76601 -70.87679,36.62011 -23.13263,20.39596 -43.09789,55.11917 -48.1488,83.73949 -2.38462,13.51219 -2.04852,42.26681 0.66076,56.53033 4.01226,21.1232 14.83086,44.87498 28.49386,62.55707 3.83218,4.95945 6.03552,8.97137 4.91145,8.94292 -1.12124,-0.0284 -6.86512,-1.96936 -12.76417,-4.3133 z m 23.11301,-266.63862 c 1.99294,-1.82967 4.87914,-6.84862 6.41378,-11.1532 7.17524,-20.12615 15.02681,-27.30979 36.84623,-33.71166 12.75179,-3.74142 26.13648,-10.61714 31.41759,-16.13925 11.54648,-12.07342 17.96403,-30.29794 16.85616,-47.868 -1.18944,-18.86358 -8.83114,-27.91378 -39.32054,-46.56799 -25.9538,-15.87922 -39.46464,-32.12999 -48.07239,-57.82119 -3.3868,-10.10856 -8.6242,-37.95787 -7.35718,-39.12111 0.37206,-0.34157 4.1797,1.35795 8.46143,3.77671 14.79129,8.35561 34.26556,15.77571 60.02949,22.87247 14.22237,3.91761 31.23433,9.03921 37.80434,11.38137 39.28916,14.00628 64.00027,43.72102 70.15751,84.36337 0.93306,6.1589 1.69645,20.14585 1.69645,31.08215 0,17.035 0.40604,20.34451 2.83371,23.09695 2.31326,2.62273 3.7577,3.02647 7.86491,2.19826 5.73232,-1.15588 8.0583,-4.52982 13.79135,-20.00485 10.74348,-28.99955 7.636,-60.60709 -8.90165,-90.54253 -7.06532,-12.7892 -13.95593,-20.92169 -27.91826,-32.94986 -20.35567,-17.53586 -42.14164,-27.37742 -86.82486,-39.22218 -13.58331,-3.60069 -29.10064,-8.58761 -34.48295,-11.082 -14.12793,-6.54755 -29.71866,-16.68774 -33.03742,-21.48753 -2.7253,-3.94151 -2.7383,-4.56107 -0.26157,-12.46505 8.89296,-28.37993 28.60724,-48.36185 62.07353,-62.91632 21.82063,-9.48975 38.46498,-12.87924 62.5398,-12.73571 54.41976,0.32442 99.77229,26.12801 130.31822,74.14534 31.87769,50.11081 35.60771,115.77522 10.64917,187.47087 -10.41057,29.9053 -13.58233,36.39125 -49.06337,100.32986 -4.82759,8.69956 -5.76926,11.53872 -4.34834,13.11056 2.56361,2.83592 9.53277,1.3538 14.89549,-3.16778 14.73152,-12.42091 39.77481,-46.80227 55.16419,-75.73369 26.78077,-50.34678 36.06204,-96.45148 30.41934,-151.1079 -2.16302,-20.95132 -5.15274,-33.95056 -12.45218,-54.14163 -10.56253,-29.21716 -23.62777,-49.98267 -43.4063,-68.98873 -27.62354,-26.54467 -61.2776,-43.81564 -99.57767,-51.10238 -15.89193,-3.02349 -46.02197,-3.37061 -62.3817,-0.71868 -24.0659,3.90111 -55.76299,15.85974 -74.40056,28.06974 -20.21563,13.24385 -40.36481,37.29797 -51.13033,61.03951 -9.37393,20.67259 -12.69138,35.90197 -13.52662,62.09665 -0.86468,27.11765 1.58678,41.95017 10.38078,62.80895 5.5784,13.2316 21.43321,35.94697 36.95908,52.95171 13.30064,14.56756 15.21685,18.10261 16.12431,29.74654 1.38414,17.76042 -6.15819,30.71462 -27.20304,46.72223 -21.73162,16.52998 -26.32968,23.89825 -26.42637,42.34757 -0.0463,8.82874 0.60378,11.77413 3.57112,16.18123 1.99522,2.9633 4.80727,6.01972 6.249,6.79207 4.80022,2.57152 12.73323,1.69339 16.57632,-1.83489 z"
     id="path30" />
</svg>
