<?xml version="1.0" encoding="UTF-8" standalone="no"?>
<svg
   version="1.1"
   width="1024"
   height="1024"
   id="svg27"
   sodipodi:docname="app_icon.svg"
   inkscape:version="1.4.2 (ebf0e940d0, 2025-05-08)"
   inkscape:export-filename="icon/app_icon.png"
   inkscape:export-xdpi="192"
   inkscape:export-ydpi="192"
   xmlns:inkscape="http://www.inkscape.org/namespaces/inkscape"
   xmlns:sodipodi="http://sodipodi.sourceforge.net/DTD/sodipodi-0.dtd"
   xmlns="http://www.w3.org/2000/svg"
   xmlns:svg="http://www.w3.org/2000/svg">
  <defs
     id="defs27" />
  <sodipodi:namedview
     id="namedview27"
     pagecolor="#ffffff"
     bordercolor="#000000"
     borderopacity="0.25"
     inkscape:showpageshadow="2"
     inkscape:pageopacity="0.0"
     inkscape:pagecheckerboard="0"
     inkscape:deskcolor="#d1d1d1"
     inkscape:zoom="0.78306552"
     inkscape:cx="204.96369"
     inkscape:cy="547.84688"
     inkscape:window-width="2560"
     inkscape:window-height="1366"
     inkscape:window-x="0"
     inkscape:window-y="0"
     inkscape:window-maximized="1"
     inkscape:current-layer="svg27" />
  <path
     d="m 526.38051,591.08427 c 0.59356,0.1494 1.18712,0.2988 1.79866,0.45272 17.5435,4.53505 32.82185,12.45073 47.00223,22.89638 1.14245,0.82146 2.28618,1.6414 3.43132,2.45965 7.39261,5.30419 7.39261,5.30419 9.58225,7.3319 -0.28495,1.74674 -0.28495,1.74674 -0.81334,3.76599 -0.12954,1.22698 -0.23555,2.45624 -0.3209,3.68654 -2.21376,29.29631 -9.01951,59.3083 -28.95964,82.93108 -0.53681,0.65925 -1.07362,1.31851 -1.62669,1.99774 -7.43968,8.94824 -16.99692,15.84328 -28.46719,19.84497 -0.53681,0 -1.07362,0 -1.6267,0 7.63793,13.2548 19.42107,21.90065 34.61814,26.92678 16.02925,4.48766 33.25104,3.11438 48.34338,-3.57768 3.93723,-2.06162 7.66157,-4.23981 11.08186,-6.98767 0.9562,-0.64226 0.9562,-0.64226 1.93171,-1.2975 2.44004,0.7532 2.44004,0.7532 3.76173,2.40082 3.34718,3.67062 7.85387,6.07836 12.50523,8.14394 -10.48874,12.6007 -28.46391,19.88111 -45.19126,22.12184 -21.52216,2.14648 -43.67336,-1.03502 -61.38912,-13.28649 -2.19688,-1.6533 -4.34169,-3.34647 -6.47501,-5.06937 -1.21254,-0.89858 -1.21254,-0.89858 -2.44958,-1.81532 -9.66206,-7.7545 -16.72784,-19.81695 -19.51082,-31.32534 -0.18453,-0.74566 -0.36906,-1.49133 -0.55918,-2.25959 -0.36729,-3.2652 -0.31716,-6.51202 -0.25417,-9.79155 0.78844,-0.29322 1.57688,-0.58644 2.38921,-0.88854 16.00719,-6.11528 30.73831,-14.08781 38.2782,-29.23933 1.62381,-3.74532 3.03938,-7.55431 4.38366,-11.39247 0.44719,-1.27186 0.91684,-2.5369 1.3892,-3.80092 4.65523,-13.51138 3.06461,-27.4806 -3.58699,-40.1195 -5.75938,-9.96099 -13.92163,-15.29891 -25.41713,-18.78284 -18.67694,-4.69247 -37.53528,-4.36739 -54.75485,4.16612 -13.97567,7.65497 -22.54784,19.41074 -26.55951,33.84199 -1.39012,5.58809 -1.45979,11.07203 -1.44382,16.78695 -0.0131,0.93208 -0.0262,1.86416 -0.0397,2.82449 -0.007,12.95058 4.23207,24.35264 13.91131,33.80577 6.41805,5.92724 15.44599,10.27679 24.37165,11.8097 2.67833,0.98858 2.67833,0.98858 3.92377,3.40116 0.28357,1.01119 0.54506,2.02785 0.78793,3.04809 1.54445,5.46585 3.75459,10.13007 6.62434,15.10513 1.10247,2.0301 1.10247,2.0301 1.10247,3.53649 -20.2885,0.91032 -38.14578,-5.1555 -53.37597,-17.79427 -11.67711,-10.08589 -18.67896,-22.86951 -22.26541,-37.18909 -0.27522,-1.06316 -0.27522,-1.06316 -0.556,-2.14779 -4.9385,-23.40256 0.79436,-46.04652 14.47188,-65.86646 13.52791,-17.71381 31.51593,-28.65543 54.41172,-33.00238 14.99826,-2.35656 30.92602,-1.46448 45.54114,2.34786 z"
     fill="#fc883a"
     id="path5"
     style="stroke-width:0.782695" />
  <path
     d="m 669.30739,706.79117 c 7.08556,3.97977 12.51958,9.68291 14.56719,17.26763 1.17683,7.35904 0.17227,14.41375 -4.63227,20.55991 -5.50869,5.84972 -10.96085,9.73511 -19.4727,10.66245 -7.52528,0.46458 -14.08655,-1.29847 -20.24792,-5.3783 -5.7493,-4.70181 -9.19367,-10.83131 -10.12873,-17.82664 -0.40089,-7.32016 2.03365,-13.63185 7.04373,-19.30361 8.46074,-8.19271 21.56816,-10.97136 32.8707,-5.98144 z"
     fill="#fd883a"
     id="path6"
     style="stroke-width:0.782695" />
  <path
     d="m 619.1022,598.61623 c 3.79146,0.38648 6.35172,1.9608 9.35351,4.00136 0.74358,0.50045 0.74358,0.50045 1.50219,1.01101 5.43547,3.73597 10.36959,7.9016 15.17144,12.31116 0.76118,0.69518 1.52236,1.39035 2.30661,2.1066 20.82358,20.00187 30.81038,46.20294 30.3131,73.63969 -0.0268,1.11316 -0.0547,2.2263 -0.0858,3.33937 -1.38396,-0.31312 -1.38396,-0.31312 -2.79588,-0.63257 -1.23693,-0.27576 -2.4739,-0.55133 -3.7109,-0.82675 -0.60496,-0.13739 -1.20992,-0.27477 -1.83322,-0.41632 -3.04579,-0.67448 -6.03355,-1.2349 -9.14698,-1.56377 -2.84672,-0.32658 -2.84672,-0.32658 -3.66007,-1.07977 -0.078,-1.39836 -0.1503,-2.79719 -0.19401,-4.19683 -0.72725,-21.53554 -9.59305,-40.62807 -25.83313,-56.05891 -1.00652,-0.97869 -1.00652,-0.97869 -2.03337,-1.97714 -0.67101,-0.59032 -1.34203,-1.18064 -2.03337,-1.78885 -0.51375,-0.45439 -1.02749,-0.90878 -1.5568,-1.37693 -4.54835,-3.89943 -9.39679,-6.97796 -14.71017,-9.92102 0.87519,-1.91687 1.75724,-3.8306 2.64339,-5.74312 0.24429,-0.53692 0.48858,-1.07384 0.74027,-1.62703 1.55099,-3.33095 3.28838,-6.2454 5.56317,-9.20018 z"
     fill="#fb883a"
     id="path7"
     style="stroke-width:0.782695" />
  <path
     style="fill:#fc883a;fill-opacity:1;stroke-width:0.999525"
     d="m 406.77734,733.74256 c -24.225,-9.70904 -46.33005,-30.00993 -61.91808,-56.86443 -15.50299,-26.708 -18.69559,-55.55741 -15.63095,-141.24626 3.66984,-102.61037 11.13446,-156.92319 26.60395,-193.57101 9.16163,-21.70428 21.83771,-40.25863 38.77897,-56.76192 15.71936,-15.31297 28.38983,-23.76233 49.96614,-33.32015 22.33376,-9.89334 37.46031,-12.94858 63.3067,-12.78659 48.85599,0.3062 85.65695,12.69369 118.57597,39.9136 39.36579,32.55058 57.97812,74.25635 55.45917,124.27078 -1.73411,34.43138 -9.43337,64.01134 -25.16098,96.66659 -13.91727,28.89643 -41.4917,75.37798 -58.57957,98.7462 -4.20185,5.74615 -3.72588,5.81531 -14.47155,-2.10288 -19.28731,-14.21231 -35.93246,-21.66014 -58.48589,-26.16941 -12.30216,-2.45967 -42.83975,-2.40639 -53.69068,0.0937 -16.03963,3.69554 -34.29781,13.21087 -46.96404,24.47553 -15.32803,13.63191 -28.55731,36.83962 -31.90412,55.96839 -1.58009,9.03105 -1.35738,28.24958 0.43783,37.78279 2.65858,14.11797 9.82715,29.99278 18.88046,41.81084 2.53926,3.31471 3.99923,5.99613 3.2544,5.97712 -0.74295,-0.019 -4.54893,-1.31625 -8.45773,-2.88285 z m 15.31503,-178.21142 c 1.32055,-1.22289 3.23299,-4.57737 4.24987,-7.45439 4.75442,-13.45158 9.95699,-18.25286 24.41487,-22.53163 8.44953,-2.50063 17.31843,-7.09611 20.81777,-10.78688 7.65087,-8.06943 11.90324,-20.25003 11.16915,-31.99321 -0.78814,-12.60772 -5.85165,-18.65654 -26.05439,-31.12433 -17.19738,-10.61308 -26.14987,-21.4745 -31.85349,-38.64555 -2.24415,-6.75619 -5.71453,-25.36964 -4.87498,-26.14711 0.24653,-0.22829 2.76953,0.90761 5.60667,2.52422 9.80093,5.58458 22.70488,10.5439 39.77645,15.28711 9.42396,2.61839 20.69634,6.04148 25.04973,7.60689 26.03359,9.36128 42.40755,29.22152 46.48743,56.38537 0.61826,4.11638 1.12409,13.46474 1.12409,20.77416 0,11.38557 0.26905,13.59752 1.87766,15.43715 1.5328,1.75294 2.48991,2.02278 5.21141,1.46924 3.79832,-0.77255 5.33955,-3.02757 9.13836,-13.37051 7.11879,-19.38223 5.05973,-40.50754 -5.89837,-60.51529 -4.68159,-8.54783 -9.24741,-13.98328 -18.49906,-22.02247 -13.48798,-11.72032 -27.92369,-18.29806 -57.53147,-26.21466 -9.00051,-2.40657 -19.28253,-5.73964 -22.84893,-7.4068 -9.36138,-4.37614 -19.69203,-11.15347 -21.89109,-14.36147 -1.80583,-2.63436 -1.81444,-3.04845 -0.17332,-8.33118 5.89261,-18.9681 18.95559,-32.32328 41.13086,-42.05095 14.45868,-6.3426 25.48748,-8.60801 41.43982,-8.51208 36.05936,0.21683 66.11063,17.463 86.35083,49.55601 21.12264,33.49222 23.59421,77.37989 7.0563,125.29862 -6.8982,19.9876 -8.99986,24.32257 -32.51013,67.05678 -3.19884,5.81447 -3.8228,7.71206 -2.88128,8.76262 1.69869,1.89542 6.31656,0.90483 9.86998,-2.11723 9.76133,-8.30168 26.35539,-31.28091 36.55263,-50.61761 17.74534,-33.64993 23.89525,-64.46461 20.15631,-100.99495 -1.43325,-14.00309 -3.41428,-22.6913 -8.251,-36.18627 -6.99889,-19.52767 -15.65612,-33.40657 -28.76167,-46.10952 -18.30378,-17.74148 -40.60347,-29.28476 -65.98168,-34.15495 -10.53023,-2.02079 -30.49485,-2.25279 -41.33506,-0.48034 -15.94643,2.60736 -36.9494,10.60007 -49.29894,18.76078 -13.39518,8.8517 -26.74633,24.92859 -33.87973,40.79656 -6.21131,13.8168 -8.4095,23.99555 -8.96294,41.50311 -0.57295,18.12444 1.05142,28.03795 6.87846,41.97919 3.69633,8.84351 14.20197,24.02563 24.48965,35.39097 8.8132,9.73642 10.08291,12.09912 10.68421,19.88149 0.91715,11.87041 -4.08051,20.52852 -18.02515,31.22742 -14.3997,11.04803 -17.44644,15.97271 -17.51051,28.30355 -0.0307,5.90081 0.40007,7.8694 2.36628,10.81494 1.32206,1.98056 3.18537,4.02336 4.14068,4.53957 3.1807,1.71871 8.43723,1.1318 10.98372,-1.22637 z"
     id="path30" />
</svg>
